<svg width="20" height="20" viewBox="0 0 20 20" fill="none" xmlns="http://www.w3.org/2000/svg">
<path d="M7.95449 9.92007L9.99996 11.9603L13.5795 8.38993M9.9999 0.90918C7.88965 1.98826 5.53863 2.56202 3.13541 2.56202C2.81095 2.56202 2.48745 2.55157 2.16536 2.53082C1.7496 4.42763 1.7036 6.40133 2.04673 8.34233C2.661 11.817 4.48304 14.9648 7.19286 17.2327C8.06171 17.9599 9.00401 18.5817 9.99993 19.091C10.9959 18.5817 11.9382 17.9599 12.807 17.2327C15.5168 14.9648 17.3389 11.817 17.9531 8.34233C18.2963 6.40133 18.2503 4.42763 17.8345 2.53081C17.5124 2.55156 17.1889 2.56202 16.8644 2.56202C14.4612 2.56202 12.1102 1.98826 9.9999 0.90918Z" stroke="currentColor"/>
</svg>
