<svg width="20" height="20" viewBox="0 0 20 20" fill="none" xmlns="http://www.w3.org/2000/svg">
<path d="M9.71852 14.7675C9.10239 12.165 7.29057 9.97449 4.79593 8.81623C3.56735 8.2458 2.23902 7.9563 0.90918 7.94773C0.986955 9.79195 1.66762 11.5871 2.88672 13.061C4.60041 15.1328 7.1929 16.3459 9.93922 16.3635C9.91677 15.8305 9.84371 15.2964 9.71852 14.7675ZM9.71852 14.7675C9.21273 12.631 7.90108 10.7722 6.06744 9.53424C6.09839 9.34964 6.13557 9.16541 6.17904 8.98182C6.70032 6.77984 8.07754 4.87287 10.0001 3.63647C11.9226 4.87287 13.2998 6.77984 13.8211 8.98182C13.8645 9.1654 13.9017 9.34962 13.9327 9.53422C12.099 10.7722 10.7875 12.631 10.2817 14.7675M9.71852 14.7675C9.84367 15.2962 9.91667 15.8302 9.93914 16.3631C9.97716 16.3635 10.0152 16.3637 10.0533 16.3637C10.8232 16.3637 11.5814 16.2698 12.312 16.0892C12.3161 16.0837 12.3203 16.0782 12.3244 16.0727C11.5928 16.2592 10.833 16.3586 10.061 16.3635M10.2817 14.7675C10.8978 12.165 12.7096 9.97449 15.2042 8.81623C16.4328 8.2458 17.7612 7.9563 19.091 7.94773C19.0132 9.79195 18.3326 11.5871 17.1135 13.061C15.3998 15.1328 12.8073 16.3459 10.061 16.3635M10.2817 14.7675C10.1565 15.2964 10.0834 15.8305 10.061 16.3635" stroke="currentColor" stroke-linecap="round" stroke-linejoin="round"/>
</svg>
